<?xml version="1.0" encoding="UTF-8" standalone="no"?>
<svg
   xmlns:dc="http://purl.org/dc/elements/1.1/"
   xmlns:cc="http://creativecommons.org/ns#"
   xmlns:rdf="http://www.w3.org/1999/02/22-rdf-syntax-ns#"
   xmlns:svg="http://www.w3.org/2000/svg"
   xmlns="http://www.w3.org/2000/svg"
   width="64"
   height="64"
   id="svg4477"
   version="1.1"
   viewBox="0 0 64 64">
  <defs
     id="defs4479" />
  <metadata
     id="metadata4482">
    <rdf:RDF>
      <cc:Work
         rdf:about="">
        <dc:format>image/svg+xml</dc:format>
        <dc:type
           rdf:resource="http://purl.org/dc/dcmitype/StillImage" />
        <dc:title></dc:title>
      </cc:Work>
    </rdf:RDF>
  </metadata>
  <g
     id="layer1">
    <g
       id="text4485"
       style="font-style:normal;font-variant:normal;font-weight:normal;font-stretch:normal;font-size:39.74404144px;line-height:100%;font-family:ArcadeClassic;-inkscape-font-specification:'ArcadeClassic, Normal';text-align:start;letter-spacing:0px;word-spacing:0px;writing-mode:lr-tb;text-anchor:start;fill:#99ff11;fill-opacity:1;stroke:none;stroke-width:1px;stroke-linecap:butt;stroke-linejoin:miter;stroke-opacity:1"
       transform="scale(0.99360101,1.0064402)">
      <path
         id="path3343"
         style="font-style:normal;font-variant:normal;font-weight:normal;font-stretch:normal;font-size:14.90401554px;line-height:100%;font-family:ArcadeClassic;-inkscape-font-specification:'ArcadeClassic, Normal';text-align:start;writing-mode:lr-tb;text-anchor:start;fill:#99ff11;fill-opacity:1"
         d="m 19.499482,33.782433 -2.101467,0 0,-1.013473 -1.058185,0 0,-1.102897 -1.043281,0 0,1.043281 -1.058185,0 0,1.073089 -2.161082,0 0,-7.4222 2.101466,0 0,3.159652 1.043281,0 0,-1.028378 1.087993,0 0,1.028378 1.043281,0 0,-3.159652 2.146179,0 0,7.4222 z" />
      <path
         id="path3345"
         style="font-style:normal;font-variant:normal;font-weight:normal;font-stretch:normal;font-size:14.90401554px;line-height:100%;font-family:ArcadeClassic;-inkscape-font-specification:'ArcadeClassic, Normal';text-align:start;writing-mode:lr-tb;text-anchor:start;fill:#99ff11;fill-opacity:1"
         d="m 27.708334,31.651159 -1.013473,0 0,2.131274 -2.146178,0 0,-2.086562 -4.262548,0 0,-2.146178 1.013473,0 0,-1.07309 1.073089,0 0,-1.058185 1.058185,0 0,-1.058185 3.219267,0 0,4.202933 1.058185,0 0,1.087993 z m -3.189459,-1.073089 0,-2.086563 -1.087993,0 0,1.058186 -1.013473,0 0,1.028377 2.101466,0 z" />
      <path
         id="path3347"
         style="font-style:normal;font-variant:normal;font-weight:normal;font-stretch:normal;font-size:14.90401554px;line-height:100%;font-family:ArcadeClassic;-inkscape-font-specification:'ArcadeClassic, Normal';text-align:start;writing-mode:lr-tb;text-anchor:start;fill:#99ff11;fill-opacity:1"
         d="m 35.917187,33.782433 -2.101466,0 0,-3.174555 -1.043281,0 0,1.043281 -1.073089,0 0,-1.043281 -1.043281,0 0,3.174555 -2.161083,0 0,-7.4222 2.101467,0 0,1.013473 1.073089,0 0,1.087993 1.028377,0 0,-1.043281 1.073089,0 0,-1.058185 2.146178,0 0,7.4222 z" />
      <path
         id="path3349"
         style="font-style:normal;font-variant:normal;font-weight:normal;font-stretch:normal;font-size:14.90401554px;line-height:100%;font-family:ArcadeClassic;-inkscape-font-specification:'ArcadeClassic, Normal';text-align:start;writing-mode:lr-tb;text-anchor:start;fill:#99ff11;fill-opacity:1"
         d="m 44.12604,30.57807 -1.013473,0 0,1.073089 -4.247644,0 0,2.131274 -2.161083,0 0,-7.4222 6.364015,0 0,1.013473 1.058185,0 0,3.204364 z m -2.131274,0 0,-3.159652 -3.159652,0 0,3.159652 3.159652,0 z" />
      <path
         id="path3351"
         style="font-style:normal;font-variant:normal;font-weight:normal;font-stretch:normal;font-size:14.90401554px;line-height:100%;font-family:ArcadeClassic;-inkscape-font-specification:'ArcadeClassic, Normal';text-align:start;writing-mode:lr-tb;text-anchor:start;fill:#99ff11;fill-opacity:1"
         d="m 52.334893,32.709344 -1.013473,0 0,1.073089 -5.335638,0 0,-1.013473 -1.073089,0 0,-1.087993 2.101466,0 0,1.028377 3.204364,0 0,-2.071658 -3.174556,0 0,-1.087993 1.013473,0 0,-1.07309 1.087993,0 0,-1.028377 -3.159651,0 0,-1.087993 6.349111,0 0,1.028377 -1.013473,0 0,1.058185 -1.087993,0 0,1.043282 1.043281,0 0,1.073089 1.058185,0 0,2.146178 z" />
    </g>
    <path
       id="rect4527"
       d="m 4,28 6,0 0,2 -6,0 z"
       style="fill:#ffffff" />
    <path
       id="rect4527-9"
       d="m 6,30 4,0 0,2 -4,0 z"
       style="fill:#ffffff" />
    <path
       id="rect4527-7"
       d="m -60.000004,28 6,0 0,2 -6,0 z"
       style="fill:#ffffff"
       transform="scale(-1,1)" />
    <path
       id="rect4527-9-6"
       d="m -58,30 4,0 0,2 -4,0 z"
       style="fill:#ffffff"
       transform="scale(-1,1)" />
    <g
       id="text5364"
       style="font-style:normal;font-variant:normal;font-weight:normal;font-stretch:normal;font-size:7.5px;line-height:125%;font-family:'Unlearned 2 BRK';-inkscape-font-specification:'Unlearned 2 BRK, Normal';text-align:start;letter-spacing:0px;word-spacing:0px;writing-mode:lr-tb;text-anchor:start;fill:#99ff11;fill-opacity:1;stroke:none;stroke-width:1px;stroke-linecap:butt;stroke-linejoin:miter;stroke-opacity:1">
      <path
         id="path3358"
         style="font-style:normal;font-variant:normal;font-weight:normal;font-stretch:normal;font-size:7.5px;line-height:125%;font-family:'Unlearned 2 BRK';-inkscape-font-specification:'Unlearned 2 BRK, Normal';text-align:start;writing-mode:lr-tb;text-anchor:start;fill:#99ff11;fill-opacity:1"
         d="m 17.741094,38.065001 0,-1.455 1.4475,0 0,1.455 -1.4475,0 z m 0.48,-0.9675 0,0.48 0.4875,0 0,-0.48 -0.4875,0 z m 1.935,1.935 -1.935,0 0,0.9675 -1.4475,0 0,-4.3575 3.3825,0 0,3.39 z m -2.9025,-2.91 0,3.39 0.4875,0 0,-0.9675 1.935,0 0,-2.4225 -2.4225,0 z" />
      <path
         id="path3360"
         style="font-style:normal;font-variant:normal;font-weight:normal;font-stretch:normal;font-size:7.5px;line-height:125%;font-family:'Unlearned 2 BRK';-inkscape-font-specification:'Unlearned 2 BRK, Normal';text-align:start;writing-mode:lr-tb;text-anchor:start;fill:#99ff11;fill-opacity:1"
         d="m 24.023281,37.097501 -1.935,0 0,1.935 -1.4475,0 0,-3.39 3.3825,0 0,1.455 z m -2.9025,-0.975 0,2.4225 0.4875,0 0,-1.935 1.935,0 0,-0.4875 -2.4225,0 z" />
      <path
         id="path3362"
         style="font-style:normal;font-variant:normal;font-weight:normal;font-stretch:normal;font-size:7.5px;line-height:125%;font-family:'Unlearned 2 BRK';-inkscape-font-specification:'Unlearned 2 BRK, Normal';text-align:start;writing-mode:lr-tb;text-anchor:start;fill:#99ff11;fill-opacity:1"
         d="m 25.475469,37.097501 0,-0.4875 1.4475,0 0,0.4875 -1.4475,0 z m 2.415,1.935 -3.3825,0 0,-3.39 3.3825,0 0,3.39 z m -2.9025,-2.91 0,2.4225 2.4225,0 0,-0.48 -1.935,0 0,-0.4875 1.935,0 0,-1.455 -2.4225,0 z" />
      <path
         id="path3364"
         style="font-style:normal;font-variant:normal;font-weight:normal;font-stretch:normal;font-size:7.5px;line-height:125%;font-family:'Unlearned 2 BRK';-inkscape-font-specification:'Unlearned 2 BRK, Normal';text-align:start;writing-mode:lr-tb;text-anchor:start;fill:#99ff11;fill-opacity:1"
         d="m 31.757656,39.032501 -3.3825,0 0,-3.39 3.3825,0 0,3.39 z m -2.9025,-2.91 0,1.455 1.935,0 0,0.4875 -1.935,0 0,0.48 2.4225,0 0,-1.4475 -1.935,0 0,-0.4875 1.935,0 0,-0.4875 -2.4225,0 z" />
      <path
         id="path3366"
         style="font-style:normal;font-variant:normal;font-weight:normal;font-stretch:normal;font-size:7.5px;line-height:125%;font-family:'Unlearned 2 BRK';-inkscape-font-specification:'Unlearned 2 BRK, Normal';text-align:start;writing-mode:lr-tb;text-anchor:start;fill:#99ff11;fill-opacity:1"
         d="m 33.209844,37.097501 0,-0.4875 1.4475,0 0,0.4875 -1.4475,0 z m 2.415,1.935 -3.3825,0 0,-3.39 3.3825,0 0,3.39 z m -2.9025,-2.91 0,2.4225 2.4225,0 0,-0.48 -1.935,0 0,-0.4875 1.935,0 0,-1.455 -2.4225,0 z" />
      <path
         id="path3368"
         style="font-style:normal;font-variant:normal;font-weight:normal;font-stretch:normal;font-size:7.5px;line-height:125%;font-family:'Unlearned 2 BRK';-inkscape-font-specification:'Unlearned 2 BRK, Normal';text-align:start;writing-mode:lr-tb;text-anchor:start;fill:#99ff11;fill-opacity:1"
         d="m 39.492031,39.032501 -1.4475,0 0,-1.935 -0.4875,0 0,1.935 -1.4475,0 0,-3.39 3.3825,0 0,3.39 z m -2.9025,-2.91 0,2.4225 0.4875,0 0,-1.935 1.4475,0 0,1.935 0.4875,0 0,-2.4225 -2.4225,0 z" />
      <path
         id="path3370"
         style="font-style:normal;font-variant:normal;font-weight:normal;font-stretch:normal;font-size:7.5px;line-height:125%;font-family:'Unlearned 2 BRK';-inkscape-font-specification:'Unlearned 2 BRK, Normal';text-align:start;writing-mode:lr-tb;text-anchor:start;fill:#99ff11;fill-opacity:1"
         d="m 43.359219,37.097501 -0.9675,0 0,1.935 -1.4475,0 0,-1.935 -0.9675,0 0,-1.455 0.9675,0 0,-0.9675 1.4475,0 0,0.9675 0.9675,0 0,1.455 z m -1.4475,-0.975 0,-0.9675 -0.4875,0 0,0.9675 -0.9675,0 0,0.4875 0.9675,0 0,1.935 0.4875,0 0,-1.935 0.9675,0 0,-0.4875 -0.9675,0 z" />
      <path
         id="path3372"
         style="font-style:normal;font-variant:normal;font-weight:normal;font-stretch:normal;font-size:7.5px;line-height:125%;font-family:'Unlearned 2 BRK';-inkscape-font-specification:'Unlearned 2 BRK, Normal';text-align:start;writing-mode:lr-tb;text-anchor:start;fill:#99ff11;fill-opacity:1"
         d="m 47.226406,39.032501 -3.3825,0 0,-3.39 3.3825,0 0,3.39 z m -2.9025,-2.91 0,1.455 1.935,0 0,0.4875 -1.935,0 0,0.48 2.4225,0 0,-1.4475 -1.935,0 0,-0.4875 1.935,0 0,-0.4875 -2.4225,0 z" />
    </g>
  </g>
</svg>
