<?xml version="1.0" encoding="UTF-8" standalone="no"?>
<svg
   xmlns:dc="http://purl.org/dc/elements/1.1/"
   xmlns:cc="http://creativecommons.org/ns#"
   xmlns:rdf="http://www.w3.org/1999/02/22-rdf-syntax-ns#"
   xmlns:svg="http://www.w3.org/2000/svg"
   xmlns="http://www.w3.org/2000/svg"
   xmlns:xlink="http://www.w3.org/1999/xlink"
   enable-background="new"
   version="1.1"
   id="svg2"
   viewBox="0 0 354.33071 354.33071"
   height="100mm"
   width="100mm">
  <defs
     id="defs4">
    <linearGradient
       id="linearGradient5686">
      <stop
         id="stop5688"
         offset="0"
         style="stop-color:#000000;stop-opacity:0.49748743" />
      <stop
         style="stop-color:#000000;stop-opacity:0"
         offset="0.30240694"
         id="stop5694" />
      <stop
         id="stop5696"
         offset="0.69640738"
         style="stop-color:#000000;stop-opacity:0" />
      <stop
         id="stop5690"
         offset="1"
         style="stop-color:#000000;stop-opacity:0.49803922" />
    </linearGradient>
    <linearGradient
       id="linearGradient4332">
      <stop
         id="stop4334"
         offset="0"
         style="stop-color:#880000;stop-opacity:1" />
      <stop
         id="stop4336"
         offset="1"
         style="stop-color:#ff2323;stop-opacity:1" />
    </linearGradient>
    <linearGradient
       id="linearGradient4281">
      <stop
         id="stop4283"
         offset="0"
         style="stop-color:#f0f00e;stop-opacity:1;" />
      <stop
         id="stop4285"
         offset="1"
         style="stop-color:#cbcb0c;stop-opacity:1" />
    </linearGradient>
    <linearGradient
       id="linearGradient4193">
      <stop
         id="stop4195"
         offset="0"
         style="stop-color:#e0dda2;stop-opacity:1;" />
      <stop
         id="stop4197"
         offset="1"
         style="stop-color:#919191;stop-opacity:0" />
    </linearGradient>
    <linearGradient
       id="linearGradient4181">
      <stop
         style="stop-color:#ffffc7;stop-opacity:1"
         offset="0"
         id="stop4185" />
      <stop
         id="stop4191"
         offset="0.12349788"
         style="stop-color:#d3d35c;stop-opacity:1" />
      <stop
         style="stop-color:#f7f79e;stop-opacity:1"
         offset="0.45896366"
         id="stop5704" />
      <stop
         id="stop5706"
         offset="0.56613231"
         style="stop-color:#f6f608;stop-opacity:1" />
      <stop
         style="stop-color:#f7f78f;stop-opacity:1"
         offset="0.9247334"
         id="stop5708" />
      <stop
         style="stop-color:#ffff00;stop-opacity:1;"
         offset="1"
         id="stop4183" />
    </linearGradient>
    <linearGradient
       id="linearGradient8446">
      <stop
         id="stop8448"
         offset="0"
         style="stop-color:#013800;stop-opacity:1" />
      <stop
         style="stop-color:#02b100;stop-opacity:1"
         offset="0.51562768"
         id="stop4602" />
      <stop
         id="stop8450"
         offset="1"
         style="stop-color:#026900;stop-opacity:1" />
    </linearGradient>
    <linearGradient
       id="linearGradient8436">
      <stop
         id="stop8438"
         offset="0"
         style="stop-color:#848484;stop-opacity:1;" />
      <stop
         id="stop8440"
         offset="1"
         style="stop-color:#848484;stop-opacity:0;" />
    </linearGradient>
    <linearGradient
       id="linearGradient8428">
      <stop
         id="stop8430"
         offset="0"
         style="stop-color:#ffff00;stop-opacity:1;" />
      <stop
         id="stop8432"
         offset="1"
         style="stop-color:#ffff00;stop-opacity:0;" />
    </linearGradient>
    <linearGradient
       id="linearGradient8416">
      <stop
         id="stop8418"
         offset="0"
         style="stop-color:#00ff00;stop-opacity:1;" />
      <stop
         id="stop8420"
         offset="1"
         style="stop-color:#00ff00;stop-opacity:0;" />
    </linearGradient>
    <radialGradient
       gradientTransform="matrix(0.36923814,0.46946386,-0.613803,0.48276236,179.99216,-25.59025)"
       gradientUnits="userSpaceOnUse"
       r="3.6249459"
       fy="110.89322"
       fx="176.6875"
       cy="110.89322"
       cx="176.6875"
       id="radialGradient8426"
       xlink:href="#linearGradient8416" />
    <radialGradient
       gradientTransform="translate(0.41535433,0)"
       gradientUnits="userSpaceOnUse"
       r="9.3829402"
       fy="111.14322"
       fx="176.75"
       cy="111.14322"
       cx="176.75"
       id="radialGradient8434"
       xlink:href="#linearGradient8428" />
    <radialGradient
       gradientTransform="matrix(1.724359,-2.5422054e-7,2.4760513e-7,1.6794872,-127.05151,-75.661634)"
       gradientUnits="userSpaceOnUse"
       r="9.75"
       fy="111.35115"
       fx="176.42314"
       cy="111.35115"
       cx="176.42314"
       id="radialGradient8444"
       xlink:href="#linearGradient8436" />
    <linearGradient
       gradientTransform="translate(-0.01726567,0)"
       gradientUnits="userSpaceOnUse"
       y2="47.368164"
       x2="190.19922"
       y1="47.368164"
       x1="164.16602"
       id="linearGradient8452"
       xlink:href="#linearGradient8446" />
    <linearGradient
       gradientUnits="userSpaceOnUse"
       y2="217.50613"
       x2="187.38603"
       y1="219.62744"
       x1="159.34326"
       id="linearGradient4187"
       xlink:href="#linearGradient4181" />
    <radialGradient
       gradientUnits="userSpaceOnUse"
       gradientTransform="matrix(1,0,0,0.74743392,0,28.936706)"
       r="19.039381"
       fy="114.57083"
       fx="177.16534"
       cy="114.57083"
       cx="177.16534"
       id="radialGradient4201"
       xlink:href="#linearGradient4193" />
    <radialGradient
       gradientUnits="userSpaceOnUse"
       gradientTransform="matrix(0.99999992,0,0,0.51633825,1.4478556e-5,40.856245)"
       r="23.374926"
       fy="61.232185"
       fx="177.25"
       cy="61.232185"
       cx="177.25"
       id="radialGradient4287"
       xlink:href="#linearGradient4281" />
    <linearGradient
       gradientUnits="userSpaceOnUse"
       y2="47.280646"
       x2="189.20278"
       y1="47.280646"
       x1="165.01034"
       id="linearGradient4338"
       xlink:href="#linearGradient4332" />
    <linearGradient
       gradientUnits="userSpaceOnUse"
       y2="84.329105"
       x2="206.77766"
       y1="84.329105"
       x1="147.55305"
       id="linearGradient5692"
       xlink:href="#linearGradient5686" />
    <filter
       height="1.034979"
       y="-0.017489517"
       width="1.0182666"
       x="-0.0091332905"
       id="filter8604"
       style="color-interpolation-filters:sRGB">
      <feGaussianBlur
         id="feGaussianBlur8606"
         stdDeviation="1.1881431" />
    </filter>
    <linearGradient
       gradientUnits="userSpaceOnUse"
       y2="165.83899"
       x2="219.52348"
       y1="69.685501"
       x1="35.095779"
       id="linearGradient5716"
       xlink:href="#linearGradient5710" />
    <linearGradient
       id="linearGradient5710">
      <stop
         id="stop5712"
         offset="0"
         style="stop-color:#ffdd00;stop-opacity:1;" />
      <stop
         style="stop-color:#fedc00;stop-opacity:1;"
         offset="0.24102943"
         id="stop5718" />
      <stop
         id="stop5720"
         offset="0.26712218"
         style="stop-color:#fffea3;stop-opacity:1" />
      <stop
         style="stop-color:#fedb00;stop-opacity:1;"
         offset="0.29896244"
         id="stop5722" />
      <stop
         id="stop5724"
         offset="0.66247618"
         style="stop-color:#fedb00;stop-opacity:1;" />
      <stop
         style="stop-color:#fff0ba;stop-opacity:1"
         offset="0.68679714"
         id="stop5726" />
      <stop
         id="stop5728"
         offset="0.71023571"
         style="stop-color:#fedb00;stop-opacity:1;" />
      <stop
         id="stop5714"
         offset="1"
         style="stop-color:#fedb00;stop-opacity:1" />
    </linearGradient>
    <filter
       height="1.0070409"
       y="-0.0035204275"
       width="1.0036768"
       x="-0.0018384204"
       id="filter8510"
       style="color-interpolation-filters:sRGB">
      <feGaussianBlur
         id="feGaussianBlur8512"
         stdDeviation="0.14075566" />
    </filter>
    <linearGradient
       y2="165.83899"
       x2="219.52348"
       y1="69.685501"
       x1="35.095779"
       gradientUnits="userSpaceOnUse"
       id="linearGradient3829"
       xlink:href="#linearGradient5710" />
    <linearGradient
       y2="165.83899"
       x2="219.52348"
       y1="69.685501"
       x1="35.095779"
       gradientUnits="userSpaceOnUse"
       id="linearGradient3831"
       xlink:href="#linearGradient5710" />
  </defs>
  <metadata
     id="metadata7">
    <rdf:RDF>
      <cc:Work
         rdf:about="">
        <dc:format>image/svg+xml</dc:format>
        <dc:type
           rdf:resource="http://purl.org/dc/dcmitype/StillImage" />
        <dc:title></dc:title>
      </cc:Work>
    </rdf:RDF>
  </metadata>
  <g
     id="layer2">
    <path
       style="fill:#b3b3b3;fill-opacity:1;fill-rule:nonzero;stroke:#000000;stroke-width:0.5;stroke-linejoin:round;stroke-miterlimit:4;stroke-dasharray:none;stroke-opacity:1"
       d="m 153.05696,72.328125 0,0.0332 a 5,12 0 0 0 -0.25391,-0.03125 5,12 0 0 0 -5,12 5,12 0 0 0 5,12 5,12 0 0 0 0.25391,-0.02148 l 0,0.01953 48,0 0,-0.05273 a 5,12 0 0 0 0.4707,0.05469 5,12 0 0 0 5,-12 5,12 0 0 0 -5,-12 5,12 0 0 0 -0.4707,0.06445 l 0,-0.06641 -48,0 z"
       id="path5682" />
    <path
       id="path4263"
       d="M 154.1875 72.519531 L 166 96.28125 L 177.375 73.400391 L 188.75 96.28125 L 200.5625 72.519531 L 177.8125 72.519531 L 176.9375 72.519531 L 154.1875 72.519531 z "
       style="fill:url(#radialGradient4287);fill-opacity:1;fill-rule:nonzero;stroke:#000000;stroke-width:0.23226871;stroke-linecap:round;stroke-linejoin:miter;stroke-miterlimit:4;stroke-dasharray:none;stroke-opacity:1" />
    <path
       id="rect4247"
       d="m 177.18195,22.40625 c -6.44388,0.0013 -11.73114,0.850627 -11.97656,1.923828 l -0.0566,0 2.0052,48 19.9896,0 2.0052,-47.810547 c 0.0175,-0.0377 0.0286,-0.07548 0.0332,-0.113281 0,-1.104569 -5.37258,-2 -12,-2 z"
       style="fill:url(#linearGradient8452);fill-opacity:1;fill-rule:nonzero;stroke:#000000;stroke-width:0.5;stroke-linejoin:round;stroke-miterlimit:4;stroke-dasharray:none;stroke-opacity:1" />
    <path
       id="path8228"
       d="m 177.25,132.08072 9.19239,205.56066"
       style="fill:none;fill-rule:evenodd;stroke:#000000;stroke-width:1px;stroke-linecap:butt;stroke-linejoin:miter;stroke-opacity:1" />
    <path
       id="path4292"
       d="m 165.70735,97.201519 -7.17578,22.087901 1.16406,0.8457 -1.69336,0 c 0,218.78593 19.40186,201.79463 29.0616,218.73633 -0.56903,-100.54449 1.3809,-182.05675 9.26457,-218.73633 l -1.38281,0 1.16406,-0.8457 -7.17578,-22.087901 z"
       style="fill:url(#linearGradient4187);fill-opacity:1;fill-rule:nonzero;stroke:#000000;stroke-width:0.5;stroke-linejoin:round;stroke-miterlimit:4;stroke-dasharray:none;stroke-opacity:1" />
    <path
       d="m 177.16534,132.4406 -18.78938,-13.65129 7.17691,-22.088242 23.22495,-1e-6 7.17691,22.088243 z"
       id="path4288"
       style="fill:url(#radialGradient4201);fill-opacity:1;fill-rule:nonzero;stroke:#000000;stroke-linejoin:round;stroke-opacity:1;stroke-width:0.5;stroke-miterlimit:4;stroke-dasharray:none" />
    <path
       d="m 173.27626,120.54354 -5.36092,-5.44239 0.0576,-7.63909 5.44238,-5.36091 7.63909,0.0576 5.36091,5.44239 -0.0576,7.63909 -5.44239,5.36091 z"
       id="path8410"
       style="fill:url(#radialGradient8444);fill-opacity:1;fill-rule:nonzero;stroke:#000000;stroke-width:0.5;stroke-linejoin:round;stroke-miterlimit:4;stroke-dasharray:none;stroke-opacity:1" />
    <path
       d="m 185.97784,114.89322 -5.45918,-0.33153 0.22641,5.46456 -3.6258,-4.09466 -3.70393,4.02413 0.33153,-5.45919 -5.46455,0.22642 4.09465,-3.62581 -4.02413,-3.70392 5.45919,0.33153 -0.22641,-5.46456 3.6258,4.09465 3.70392,-4.02412 -0.33152,5.45919 5.46455,-0.22642 -4.09465,3.6258 z"
       id="path8412"
       style="fill:url(#radialGradient8434);fill-opacity:1;fill-rule:nonzero;stroke:#000000;stroke-width:0.5;stroke-linejoin:round;stroke-miterlimit:4;stroke-dasharray:none;stroke-opacity:1" />
    <path
       d="m 180.29034,110.89322 -2.02014,1.10485 -1.10486,2.02015 -1.10485,-2.02015 -2.02015,-1.10485 2.02015,-1.10486 1.10485,-2.02014 1.10486,2.02014 z"
       id="path8414"
       style="fill:url(#radialGradient8426);fill-opacity:1;fill-rule:nonzero;stroke:#000000;stroke-width:0.5;stroke-linejoin:round;stroke-miterlimit:4;stroke-dasharray:none;stroke-opacity:1" />
    <path
       id="path3379"
       d="m 177.13025,131.94563 c -1.33567,75.65879 0.14496,157.43557 6.84486,195.70045 1.2011,6.85977 1.38362,6.51527 3.05463,10.77472"
       style="fill:none;fill-rule:evenodd;stroke:#000000;stroke-width:0.5;stroke-linecap:butt;stroke-linejoin:miter;stroke-miterlimit:4;stroke-dasharray:none;stroke-opacity:1" />
    <path
       id="path4320"
       d="m 165.13523,24.288823 12.03921,47.950435 11.88833,-47.954148 c -2.93423,-2.452267 -20.36479,-2.531612 -23.92754,0.0037 z"
       style="fill:url(#linearGradient4338);fill-opacity:1;fill-rule:evenodd;stroke:#000000;stroke-width:0.24977989;stroke-linecap:butt;stroke-linejoin:miter;stroke-miterlimit:4;stroke-dasharray:none;stroke-opacity:1" />
    <path
       id="path5684"
       d="m 153.05696,72.328125 0,0.0332 a 5,12 0 0 0 -0.25391,-0.03125 5,12 0 0 0 -5,12 5,12 0 0 0 5,12 5,12 0 0 0 0.25391,-0.02148 l 0,0.01953 48,0 0,-0.05273 a 5,12 0 0 0 0.4707,0.05469 5,12 0 0 0 5,-12 5,12 0 0 0 -5,-12 5,12 0 0 0 -0.4707,0.06445 l 0,-0.06641 -48,0 z"
       style="fill:url(#linearGradient5692);fill-opacity:1;fill-rule:nonzero;stroke:#000000;stroke-width:0.5;stroke-linejoin:round;stroke-miterlimit:4;stroke-dasharray:none;stroke-opacity:1" />
    <g
       id="flowRoot8514"
       style="font-style:normal;font-weight:normal;font-size:40px;line-height:125%;font-family:sans-serif;letter-spacing:0px;word-spacing:0px;fill:#000000;fill-opacity:1;stroke:none;stroke-width:1px;stroke-linecap:butt;stroke-linejoin:miter;stroke-opacity:1;filter:url(#filter8604)"
       transform="translate(3.0582366,4.8326302)">
      <path
         id="path4634"
         style="font-style:normal;font-variant:normal;font-weight:normal;font-stretch:normal;font-size:67.96500397px;line-height:125%;font-family:CiberGotica;-inkscape-font-specification:'CiberGotica, Normal';text-align:start;writing-mode:lr-tb;text-anchor:start"
         d="m 41.296598,93.167438 c 0.265488,0.298674 0.398232,0.630534 0.398232,0.995581 0,0.365046 -0.132744,0.696906 -0.398232,0.962395 -0.298674,0.265488 -0.630535,0.398232 -0.995581,0.398232 -0.265488,0 -0.497791,-0.06637 -0.730093,-0.199116 l 0.06637,-0.03319 -0.265488,-0.132744 c -0.298674,-0.265489 -0.431419,-0.597349 -0.431419,-0.995581 0,-0.365047 0.132745,-0.696907 0.398233,-0.995581 0.265488,-0.265489 0.597349,-0.398233 0.962395,-0.398233 0.365046,0 0.696907,0.132744 0.995581,0.398233 z m 0.630535,2.621696 c 0.431418,-0.464604 0.66372,-0.995581 0.66372,-1.626115 0,-0.630535 -0.232302,-1.194698 -0.66372,-1.626116 -0.431419,-0.431419 -0.995581,-0.663721 -1.626116,-0.663721 -0.630535,0 -1.161511,0.232302 -1.626116,0.663721 -0.431418,0.431418 -0.663721,0.995581 -0.663721,1.626116 0,0.33186 0.06637,0.66372 0.232303,0.962395 l -5.840743,3.418162 -4.845161,-3.318604 -8.362882,4.845158 5.741185,3.84958 13.805391,-8.09739 c 0.431419,0.431419 0.962395,0.630535 1.559744,0.630535 0.630535,0 1.194697,-0.232302 1.626116,-0.663721 z m -15.033275,55.686166 8.362881,-4.84516 -0.06637,-44.46929 17.522228,-10.154924 -1.559744,-0.03319 -24.292179,14.10407 0.03319,45.39849 z m 51.006939,-4.7456 -5.741184,3.38498 -4.115069,0 9.856253,-5.708 0,2.32302 z m -2.256651,-24.12625 c 0.298675,0.26549 0.431419,0.59735 0.431419,0.9624 0,0.39823 -0.132744,0.73009 -0.431419,0.99558 -0.265488,0.26549 -0.597348,0.39823 -0.962395,0.39823 -0.365046,0 -0.696906,-0.13274 -0.962395,-0.39823 -0.298674,-0.26549 -0.431418,-0.59735 -0.431418,-0.99558 0,-0.36505 0.132744,-0.69691 0.431418,-0.9624 0.265489,-0.26549 0.597349,-0.39823 0.962395,-0.39823 0.365047,0 0.696907,0.13274 0.962395,0.39823 z m 10.519974,8.19695 -7.068626,-5.80755 -10.486787,6.10623 -2.157093,-1.6593 6.902696,-4.01551 c 0.398232,0.29867 0.829651,0.43141 1.327441,0.43141 0.630535,0 1.161512,-0.2323 1.626116,-0.66372 0.431419,-0.43142 0.663721,-0.99558 0.663721,-1.62611 0,-0.63054 -0.232302,-1.16151 -0.663721,-1.59293 -0.464604,-0.46461 -0.995581,-0.69691 -1.626116,-0.69691 -0.630534,0 -1.194697,0.2323 -1.626115,0.69691 -0.431419,0.43142 -0.663721,0.96239 -0.663721,1.59293 0,0.43142 0.132744,0.86283 0.365046,1.22788 l -15.431507,8.89386 3.68365,2.78763 10.420416,-6.03986 6.471277,5.24339 0,7.76553 -11.415997,6.6704 -8.097393,0.0332 -0.03319,0 -12.146089,-8.86067 0.03319,-41.05113 4.944719,-2.887182 16.028856,12.444762 18.916041,-11.017762 -8.694742,-6.70358 -8.362881,4.845162 8.031021,6.13942 -2.323023,1.32744 -15.929297,-12.41158 -20.973576,12.21246 0,41.98034 -0.03319,0 0.03319,0 0,0.0996 0.06637,-0.0332 12.14609,8.76111 -0.06637,0 8.031021,0 3.219045,-1.79204 -4.380557,0 0.03319,-0.0332 -0.03319,0 -13.208042,-9.12616 c -0.398233,0.29868 -0.829651,0.43142 -1.327442,0.43142 -0.630534,0 -1.161511,-0.2323 -1.59293,-0.66372 -0.431418,-0.43142 -0.66372,-0.96239 -0.66372,-1.59293 0,-0.56416 0.16593,-1.06195 0.530976,-1.49337 0.365047,-0.43142 0.796465,-0.66372 1.360628,-0.76328 l 0,-37.0688 0.763279,-0.39824 0,37.46704 c 0.564162,0.0996 0.995581,0.33186 1.360627,0.76328 0.365047,0.43142 0.530977,0.92921 0.530977,1.49337 0,0.4646 -0.132744,0.89602 -0.365047,1.26107 l 13.141671,8.96023 6.338533,0.0332 -4.115068,2.52213 5.641626,0 20.973575,-12.3452 -0.09956,-11.84742 z m -44.767964,12.3784 c 0.265488,0.26548 0.597349,0.39823 0.962395,0.39823 0.398233,0 0.730093,-0.13275 0.995581,-0.39823 0.265489,-0.26549 0.398233,-0.59735 0.398233,-0.9624 0,-0.39823 -0.132744,-0.73009 -0.398233,-0.99558 -0.265488,-0.26549 -0.597348,-0.39823 -0.995581,-0.39823 -0.365046,0 -0.696907,0.13274 -0.962395,0.39823 -0.265488,0.26549 -0.398232,0.59735 -0.398232,0.99558 0,0.36505 0.132744,0.69691 0.398232,0.9624 z M 51.7502,159.63907 c -0.265489,-0.26549 -0.398233,-0.59735 -0.398233,-0.9624 0,-0.39823 0.132744,-0.73009 0.398233,-0.99558 0.265488,-0.26548 0.597348,-0.39823 0.962395,-0.39823 0.398232,0 0.730093,0.13275 0.995581,0.39823 0.265488,0.26549 0.398232,0.59735 0.398232,0.99558 0,0.36505 -0.132744,0.69691 -0.398232,0.9624 -0.265488,0.26549 -0.597349,0.39823 -0.995581,0.39823 -0.365047,0 -0.696907,-0.13274 -0.962395,-0.39823 z m 2.688069,-2.48895 c -0.464605,-0.49779 -1.028767,-0.76328 -1.725674,-0.76328 -0.630535,0 -1.161511,0.2323 -1.59293,0.66372 -0.464605,0.43142 -0.696907,0.99558 -0.696907,1.62611 0,0.63054 0.232302,1.16152 0.696907,1.59293 0.431419,0.43142 0.962395,0.66373 1.59293,0.66373 0.630535,0 1.194697,-0.23231 1.626116,-0.66373 0.431418,-0.43141 0.66372,-0.96239 0.66372,-1.59293 0,-0.29867 -0.06637,-0.59734 -0.16593,-0.89602 l 4.745603,-2.75444 -1.460185,-0.0332 -3.68365,2.1571 z m -18.418251,-8.3297 -8.362881,4.84516 10.287671,7.26775 -11.880601,7.03544 1.725674,-0.0332 19.148343,-11.25007 -0.265488,-0.26549 -10.652718,-7.5996 z m 23.562086,6.20579 0.06637,-0.0332 -0.03319,0 -0.03319,0.0332 z m -1.526557,-0.0332 0.06637,0 0.03319,0 -0.09956,0 z" />
      <path
         id="path4636"
         style="font-style:normal;font-variant:normal;font-weight:normal;font-stretch:normal;font-size:67.96500397px;line-height:125%;font-family:CiberGotica;-inkscape-font-specification:'CiberGotica, Normal';text-align:start;writing-mode:lr-tb;text-anchor:start"
         d="m 108.69744,142.54826 -1.52656,0.89602 -6.80313,-4.11506 0,-19.48021 1.52655,-0.86284 6.83633,4.08189 -0.0332,19.4802 z m -4.31418,2.52214 -5.442513,-3.25223 c -0.431418,0.43142 -0.929209,0.66372 -1.493371,0.66372 -0.564163,0 -1.028767,-0.19912 -1.427,-0.59735 -0.398232,-0.39823 -0.597349,-0.86284 -0.597349,-1.427 0,-0.49779 0.132745,-0.89602 0.431419,-1.26107 0.298674,-0.36505 0.663721,-0.63053 1.128325,-0.73009 l 0,-16.72576 0.663721,-0.36505 0,17.05762 c 0.530977,0.0664 0.962395,0.29868 1.294255,0.66372 0.365047,0.36505 0.530977,0.82965 0.530977,1.36063 0,0.2323 -0.03319,0.49779 -0.132744,0.73009 l 5.708,3.48454 -0.66372,0.39823 z m 11.8806,-26.31653 -7.50005,-4.57967 -15.962479,9.29209 0,20.17711 7.500039,4.61286 15.96249,-9.25891 0,-20.24348 z m -19.812065,20.70809 c -0.265489,0.26549 -0.398233,0.59735 -0.398233,0.99558 0,0.36505 0.132744,0.69691 0.398233,0.9624 0.298674,0.29867 0.630534,0.43141 0.995581,0.43141 0.365046,0 0.696907,-0.13274 0.995581,-0.43141 0.265488,-0.26549 0.398232,-0.59735 0.398232,-0.9624 0,-0.39823 -0.132744,-0.73009 -0.398232,-0.99558 -0.298674,-0.26549 -0.630535,-0.39823 -0.995581,-0.39823 -0.365047,0 -0.696907,0.13274 -0.995581,0.39823 z" />
      <path
         id="path4638"
         style="font-style:normal;font-variant:normal;font-weight:normal;font-stretch:normal;font-size:67.96500397px;line-height:125%;font-family:CiberGotica;-inkscape-font-specification:'CiberGotica, Normal';text-align:start;writing-mode:lr-tb;text-anchor:start"
         d="m 124.7263,140.92214 c -0.26549,0.26549 -0.39823,0.59735 -0.39823,0.9624 0,0.39823 0.13274,0.73009 0.39823,0.99558 0.26549,0.26549 0.59735,0.39823 0.9624,0.39823 0.39823,0 0.73009,-0.13274 0.99558,-0.39823 0.26549,-0.26549 0.39823,-0.59735 0.39823,-0.99558 0,-0.36505 -0.13274,-0.69691 -0.39823,-0.9624 -0.26549,-0.29867 -0.59735,-0.43141 -0.99558,-0.43141 -0.36505,0 -0.69691,0.13274 -0.9624,0.43141 z m 2.35621,2.45577 c -0.39823,0.36505 -0.86284,0.53098 -1.39381,0.53098 -0.56417,0 -1.02877,-0.19912 -1.46019,-0.59735 -0.39823,-0.36505 -0.59735,-0.86284 -0.59735,-1.427 0,-0.49779 0.16593,-0.92921 0.49779,-1.29426 0.33186,-0.36504 0.7301,-0.59734 1.1947,-0.6969 l -0.0332,-45.597617 0.66372,-0.365047 0,45.962664 c 0.4978,0.0664 0.92921,0.29867 1.26107,0.66372 0.33186,0.36504 0.49779,0.82965 0.49779,1.32744 0,0.29867 -0.0664,0.59735 -0.19911,0.89602 l 4.44693,3.18586 -0.63054,0.39823 -4.24781,-2.98674 z m 3.01993,-4.08188 0,-48.484801 -7.56642,4.380557 0,48.584354 6.6704,4.48012 7.53323,-4.38056 -6.63721,-4.57967 z" />
      <path
         id="path4640"
         style="font-style:normal;font-variant:normal;font-weight:normal;font-stretch:normal;font-size:67.96500397px;line-height:125%;font-family:CiberGotica;-inkscape-font-specification:'CiberGotica, Normal';text-align:start;writing-mode:lr-tb;text-anchor:start"
         d="m 163.71989,114.10783 c -0.29868,0.29867 -0.69691,0.4646 -1.12833,0.4646 -0.43142,0 -0.82965,-0.16593 -1.12832,-0.4646 -0.33186,-0.29868 -0.49779,-0.69691 -0.49779,-1.12833 0,-0.43142 0.16593,-0.82965 0.49779,-1.12832 0.29867,-0.29868 0.6969,-0.46461 1.12832,-0.46461 0.43142,0 0.82965,0.16593 1.12833,0.46461 0.29867,0.29867 0.4646,0.6969 0.4646,1.12832 0,0.43142 -0.16593,0.82965 -0.4646,1.12833 z m 0.39823,25.45369 -0.66372,0.39823 0,-25.1882 c -0.29868,0.13274 -0.56416,0.19911 -0.86284,0.19911 -0.56416,0 -1.02877,-0.19911 -1.427,-0.59734 l -1.99116,1.12832 -0.43142,-0.63053 1.99116,-1.12833 c -0.0995,-0.2323 -0.13274,-0.49779 -0.13274,-0.76328 0,-0.0664 0,-0.16593 0.0332,-0.29867 l -14.93372,-16.85851 0.69691,-0.365046 14.46911,16.526646 c 0.36504,-0.66372 0.96239,-0.99558 1.72567,-0.99558 0.56416,0 1.02877,0.19912 1.39382,0.59735 0.39823,0.36504 0.59734,0.82965 0.59734,1.39381 0,0.46461 -0.16593,0.86284 -0.4646,1.22789 l 0,25.35413 z m -6.76995,3.94914 -6.43809,-4.48012 0,-18.75011 8.23013,-4.7456 0,26.94706 -1.79204,1.02877 z m 9.22572,-32.48913 -16.72577,-18.949232 -7.43367,4.314185 16.32753,18.484627 -15.26558,8.89385 0.0332,19.67932 7.135,4.81198 15.9293,-9.22572 0,-28.00901 z" />
      <path
         id="path4642"
         style="font-style:normal;font-variant:normal;font-weight:normal;font-stretch:normal;font-size:67.96500397px;line-height:125%;font-family:CiberGotica;-inkscape-font-specification:'CiberGotica, Normal';text-align:start;writing-mode:lr-tb;text-anchor:start"
         d="m 128.11127,185.52418 c -0.26549,0.26549 -0.39823,0.59735 -0.39823,0.99558 0,0.36504 0.13274,0.6969 0.39823,0.96239 0.29868,0.26549 0.63054,0.39824 0.99558,0.39824 0.36505,0 0.69691,-0.13275 0.9624,-0.39824 0.26549,-0.26549 0.39823,-0.59735 0.39823,-0.96239 0,-0.39823 -0.13274,-0.73009 -0.39823,-0.99558 -0.26549,-0.26549 -0.59735,-0.39824 -0.9624,-0.39824 -0.36504,0 -0.6969,0.13275 -0.99558,0.39824 z m 37.66615,46.02903 c -0.26549,-0.29867 -0.39823,-0.63053 -0.39823,-0.99558 0,-0.36505 0.13274,-0.69691 0.39823,-0.9624 0.26549,-0.26548 0.59735,-0.39823 0.9624,-0.39823 0.36504,0 0.6969,0.13275 0.99558,0.39823 0.26549,0.26549 0.39823,0.59735 0.39823,0.9624 0,0.36505 -0.13274,0.69691 -0.39823,0.99558 -0.29868,0.26549 -0.63054,0.39823 -0.99558,0.39823 -0.36505,0 -0.69691,-0.13274 -0.9624,-0.39823 z m -36.6042,4.87835 -0.76327,0.43142 0,-48.18613 c -0.53098,-0.16593 -0.92921,-0.49779 -1.22789,-0.96239 l -2.38939,1.39381 0,-0.92921 2.05753,-1.22788 c -0.0332,-0.16593 -0.0332,-0.29868 -0.0332,-0.43142 0,-0.73009 0.29867,-1.32744 0.86283,-1.79205 l -7.10181,-4.94472 0.73009,-0.4646 7.06863,5.04428 c 0.26549,-0.0996 0.49779,-0.13275 0.73009,-0.13275 0.63054,0 1.16151,0.2323 1.59293,0.66372 0.43142,0.43142 0.66372,0.99558 0.66372,1.62612 0,0.59735 -0.19911,1.12832 -0.63053,1.55974 -0.43142,0.43142 -0.92921,0.66372 -1.55975,0.69691 l 0,47.65515 z m -14.86734,-41.31662 c -0.26549,-0.29867 -0.39823,-0.63053 -0.39823,-0.99558 0,-0.36505 0.13274,-0.69691 0.39823,-0.96239 0.26549,-0.26549 0.59735,-0.39824 0.96239,-0.39824 0.36505,0 0.69691,0.13275 0.9624,0.39824 0.29867,0.26548 0.43142,0.59734 0.43142,0.96239 0,0.36505 -0.13275,0.69691 -0.43142,0.99558 -0.26549,0.26549 -0.59735,0.39823 -0.9624,0.39823 -0.36504,0 -0.6969,-0.13274 -0.96239,-0.39823 z m 50.84101,33.84976 c -0.43142,0.43142 -0.66372,0.96239 -0.66372,1.59293 0,0.2323 0.0332,0.49779 0.13274,0.76328 l -7.20137,3.71683 -5.77437,0.0996 16.49346,-9.05979 0,-31.26124 -0.0332,0 -23.86077,-17.88728 -11.11732,6.43809 -9.52439,-6.43809 -21.50455,12.64388 6.37172,4.48012 8.23013,-4.81198 -5.60844,-3.98232 5.07747,-2.92037 8.66155,5.80755 -7.73234,4.64605 c -0.43142,-0.63054 -1.06196,-0.92921 -1.82524,-0.92921 -0.63053,0 -1.16151,0.2323 -1.59293,0.66372 -0.43141,0.43142 -0.66372,0.9624 -0.66372,1.59293 0,0.63054 0.23231,1.1947 0.66372,1.62612 0.43142,0.43141 0.9624,0.66372 1.59293,0.66372 0.63054,0 1.16152,-0.23231 1.62612,-0.66372 0.43142,-0.43142 0.66372,-0.99558 0.66372,-1.62612 0,-0.19912 -0.0332,-0.43142 -0.13274,-0.66372 l 7.40048,-4.31419 0,50.80783 8.29651,-4.84516 0,-50.80783 3.48454,-2.02434 23.23022,17.38948 0,29.9338 -9.85625,5.4757 -6.83632,0 -8.29651,4.84516 15.39832,0 14.80097,-7.86509 c 0.43142,0.53098 0.99558,0.79647 1.69249,0.79647 0.63053,0 1.1947,-0.23231 1.62611,-0.66372 0.43142,-0.43142 0.66372,-0.99559 0.66372,-1.62612 0,-0.63054 -0.2323,-1.16151 -0.66372,-1.59293 -0.43141,-0.43142 -0.99558,-0.66372 -1.62611,-0.66372 -0.63054,0 -1.16151,0.2323 -1.59293,0.66372 z m -17.55542,-0.0996 c 0.26549,0.26549 0.39824,0.59735 0.39824,0.9624 0,0.36504 -0.13275,0.6969 -0.39824,0.96239 -0.26548,0.29868 -0.59734,0.43142 -0.99558,0.43142 -0.36504,0 -0.6969,-0.13274 -0.96239,-0.43142 -0.26549,-0.26549 -0.39823,-0.59735 -0.39823,-0.96239 0,-0.36505 0.13274,-0.69691 0.39823,-0.9624 0.26549,-0.26549 0.59735,-0.39823 0.96239,-0.39823 0.39824,0 0.7301,0.13274 0.99558,0.39823 z m -33.7502,-29.33646 0,50.17729 31.26125,-18.15276 c 0.43142,0.36505 0.92921,0.56416 1.49337,0.56416 0.63054,0 1.1947,-0.2323 1.62612,-0.66372 0.43142,-0.43142 0.66372,-0.99558 0.66372,-1.62611 0,-0.63054 -0.2323,-1.16151 -0.66372,-1.59293 -0.43142,-0.43142 -0.99558,-0.66372 -1.62612,-0.66372 -0.63053,0 -1.16151,0.2323 -1.59293,0.66372 -0.43141,0.43142 -0.66372,0.96239 -0.66372,1.59293 0,0.36504 0.0996,0.6969 0.26549,1.02876 l -22.46695,13.0753 0,-49.61312 -8.29651,5.2102 z" />
      <path
         id="path4644"
         style="font-style:normal;font-variant:normal;font-weight:normal;font-stretch:normal;font-size:67.96500397px;line-height:125%;font-family:CiberGotica;-inkscape-font-specification:'CiberGotica, Normal';text-align:start;writing-mode:lr-tb;text-anchor:start"
         d="m 195.0807,211.30973 c -0.29867,0.29867 -0.69691,0.4646 -1.12832,0.4646 -0.46461,0 -0.86284,-0.16593 -1.16152,-0.4646 -0.29867,-0.33186 -0.4646,-0.7301 -0.4646,-1.16151 0,-0.43142 0.16593,-0.82965 0.4646,-1.16151 0.29868,-0.29868 0.69691,-0.46461 1.16152,-0.46461 0.43141,0 0.82965,0.16593 1.12832,0.46461 0.33186,0.33186 0.49779,0.73009 0.49779,1.16151 0,0.43141 -0.16593,0.82965 -0.49779,1.16151 z m -1.427,14.83416 0,-13.93814 c -0.56416,-0.0996 -0.99558,-0.33186 -1.36063,-0.76328 l -1.79204,1.06196 0,-0.79647 1.46018,-0.89602 c -0.0664,-0.23231 -0.0996,-0.46461 -0.0996,-0.66372 0,-0.56417 0.19912,-1.06196 0.59735,-1.49338 0.43142,-0.39823 0.92921,-0.59734 1.49338,-0.59734 0.59734,0 1.09513,0.2323 1.52655,0.6969 l 0.29868,-0.16593 0,-1.72567 -7.20137,-5.01109 0.73009,-0.39824 7.16818,5.0111 0,2.58851 -0.59734,0.33186 c 0.0995,0.26549 0.13274,0.53097 0.13274,0.76328 0,0.49779 -0.16593,0.96239 -0.46461,1.32744 -0.33186,0.36504 -0.73009,0.63053 -1.22788,0.73009 l 0,13.5399 6.63721,4.64605 -0.63054,0.39823 -6.67039,-4.64604 z m -3.11949,0.82965 -2.45576,1.427 -5.90712,-4.08189 0,-6.96906 8.36288,-4.81198 0,14.43593 z m 7.50005,-3.45135 0,-19.71251 -6.53765,-4.44693 -0.0332,0 -15.39832,8.96023 0,0.79647 8.562,-4.94472 5.90711,4.0487 0,3.45134 -15.89611,9.19254 0,7.89827 0.0664,-0.0332 6.53765,4.48011 9.29209,-5.37614 0,0.0332 7.26775,5.34295 7.46685,-4.34737 -7.23455,-5.34295 z" />
      <path
         id="path4646"
         style="font-style:normal;font-variant:normal;font-weight:normal;font-stretch:normal;font-size:67.96500397px;line-height:125%;font-family:CiberGotica;-inkscape-font-specification:'CiberGotica, Normal';text-align:start;writing-mode:lr-tb;text-anchor:start"
         d="m 231.95038,226.54212 c 0.26549,-0.26549 0.39823,-0.59735 0.39823,-0.99558 0,-0.36505 -0.13274,-0.69691 -0.39823,-0.9624 -0.26549,-0.29867 -0.59735,-0.43142 -0.99558,-0.43142 -0.36505,0 -0.69691,0.13275 -0.99558,0.43142 -0.26549,0.26549 -0.39823,0.59735 -0.39823,0.9624 0,0.39823 0.13274,0.73009 0.39823,0.99558 0.29867,0.29867 0.63053,0.43142 0.99558,0.43142 0.39823,0 0.73009,-0.13275 0.99558,-0.43142 z m -5.17702,-18.58418 0,19.61295 -1.49337,0.86283 -6.47128,-4.44693 0,-18.98241 1.99116,-1.16151 5.97349,4.11507 z m 15.43151,-7.99784 0,-0.96239 -7.89828,4.54648 -6.57084,-4.54648 -16.55983,9.52439 0,19.87844 7.135,4.84516 8.46244,-4.84516 0,-0.79647 2.25665,-1.36063 c -0.0664,-0.2323 -0.0996,-0.4646 -0.0996,-0.6969 0,-0.56417 0.19912,-1.06196 0.63054,-1.46019 l 0,-17.02444 -6.57084,-4.57967 0.76328,-0.39823 6.50446,4.61286 0,16.95806 c 0.2323,-0.0995 0.46461,-0.13274 0.69691,-0.13274 0.56416,0 1.02877,0.19912 1.427,0.59735 0.43142,0.39823 0.63053,0.86283 0.63053,1.427 0,0.19911 -0.0332,0.39823 -0.13274,0.63053 l 7.00225,14.40274 -0.59735,0.29868 -6.86951,-13.90495 c -0.39823,0.43142 -0.89602,0.63053 -1.46018,0.63053 -0.63054,0 -1.12833,-0.2323 -1.52656,-0.73009 l -2.65488,1.52656 7.40048,15.4315 -8.56199,4.97791 -6.80314,-8.62837 -7.63279,4.41374 7.33411,9.15935 0.0664,0.0996 23.49571,-13.67265 -7.69916,-16.12841 0,-19.61295 7.83191,-4.48012 z" />
      <path
         id="path4648"
         style="font-style:normal;font-variant:normal;font-weight:normal;font-stretch:normal;font-size:67.96500397px;line-height:125%;font-family:CiberGotica;-inkscape-font-specification:'CiberGotica, Normal';text-align:start;writing-mode:lr-tb;text-anchor:start"
         d="m 263.67624,226.54212 c 0.26549,-0.26549 0.39823,-0.59735 0.39823,-0.99558 0,-0.36505 -0.13274,-0.69691 -0.39823,-0.9624 -0.26549,-0.29867 -0.59735,-0.43142 -0.99558,-0.43142 -0.36505,0 -0.69691,0.13275 -0.99558,0.43142 -0.26549,0.26549 -0.39823,0.59735 -0.39823,0.9624 0,0.39823 0.13274,0.73009 0.39823,0.99558 0.29867,0.29867 0.63053,0.43142 0.99558,0.43142 0.39823,0 0.73009,-0.13275 0.99558,-0.43142 z m -5.17702,-18.58418 0,19.61295 -1.49337,0.86283 -6.47128,-4.44693 0,-18.98241 1.99116,-1.16151 5.97349,4.11507 z m 15.43151,-7.99784 0,-0.96239 -7.89828,4.54648 -6.57084,-4.54648 -16.55983,9.52439 0,19.87844 7.135,4.84516 8.46244,-4.84516 0,-0.79647 2.25665,-1.36063 c -0.0664,-0.2323 -0.0996,-0.4646 -0.0996,-0.6969 0,-0.56417 0.19912,-1.06196 0.63054,-1.46019 l 0,-17.02444 -6.57084,-4.57967 0.76328,-0.39823 6.50446,4.61286 0,16.95806 c 0.2323,-0.0995 0.46461,-0.13274 0.69691,-0.13274 0.56416,0 1.02877,0.19912 1.427,0.59735 0.43142,0.39823 0.63053,0.86283 0.63053,1.427 0,0.19911 -0.0332,0.39823 -0.13274,0.63053 l 7.00225,14.40274 -0.59735,0.29868 -6.8695,-13.90495 c -0.39824,0.43142 -0.89603,0.63053 -1.46019,0.63053 -0.63054,0 -1.12833,-0.2323 -1.52656,-0.73009 l -2.65488,1.52656 7.40049,15.4315 -8.562,4.97791 -6.80314,-8.62837 -7.63279,4.41374 7.33412,9.15935 0.0664,0.0996 23.49571,-13.67265 -7.69916,-16.12841 0,-19.61295 7.83191,-4.48012 z" />
      <path
         id="path4650"
         style="font-style:normal;font-variant:normal;font-weight:normal;font-stretch:normal;font-size:67.96500397px;line-height:125%;font-family:CiberGotica;-inkscape-font-specification:'CiberGotica, Normal';text-align:start;writing-mode:lr-tb;text-anchor:start"
         d="m 279.04136,220.30314 c -0.29867,0.33186 -0.69691,0.49779 -1.16151,0.49779 -0.43142,0 -0.82965,-0.16593 -1.12832,-0.49779 -0.33187,-0.29867 -0.4978,-0.6969 -0.4978,-1.12832 0,-0.46461 0.16593,-0.86284 0.4978,-1.16151 0.29867,-0.29868 0.6969,-0.46461 1.12832,-0.46461 0.4646,0 0.86284,0.16593 1.16151,0.46461 0.29868,0.29867 0.46461,0.6969 0.46461,1.16151 0,0.43142 -0.16593,0.82965 -0.46461,1.12832 z m 4.31419,11.34963 -6.80314,-4.77879 0,-6.20579 c -0.43142,-0.43142 -0.66372,-0.92921 -0.66372,-1.49337 0,-0.56416 0.19911,-1.06195 0.59735,-1.427 0.36504,-0.39823 0.82965,-0.59735 1.39381,-0.59735 0.2323,0 0.49779,0.0332 0.73009,0.13274 l 0,-9.78988 0.69691,-0.36504 0,10.58634 c 0,0.0332 0.0332,0.0664 0.0996,0.13275 l 2.78763,-1.62612 0,0.82965 -2.42259,1.39382 c 0.0996,0.2323 0.13275,0.49779 0.13275,0.73009 0,0.56416 -0.19912,1.02877 -0.59735,1.427 -0.36505,0.36504 -0.86284,0.56416 -1.427,0.56416 -0.19912,0 -0.39823,-0.0332 -0.63053,-0.0996 l 0,5.34295 6.73676,4.84517 -0.63053,0.39823 z m -1.16151,-26.18378 2.25665,-1.32745 6.03985,7.23456 -8.2965,4.84516 0,-10.75227 z m 0,18.58418 0,-7.00226 16.29434,-9.35846 -6.96907,-8.46244 -16.85851,9.78988 0,19.41383 7.03544,4.77879 16.36072,-9.35846 0,-0.9624 -9.49121,5.57526 -6.37171,-4.41374 z" />
      <path
         id="path4652"
         style="font-style:normal;font-variant:normal;font-weight:normal;font-stretch:normal;font-size:67.96500397px;line-height:125%;font-family:CiberGotica;-inkscape-font-specification:'CiberGotica, Normal';text-align:start;writing-mode:lr-tb;text-anchor:start"
         d="m 312.19422,204.83845 c -0.26548,0.29867 -0.39823,0.63054 -0.39823,0.99558 0,0.36505 0.13275,0.69691 0.39823,0.99558 0.26549,0.26549 0.59735,0.39824 0.99559,0.39824 0.36504,0 0.6969,-0.13275 0.96239,-0.39824 0.29867,-0.29867 0.43142,-0.63053 0.43142,-0.99558 0,-0.36504 -0.13275,-0.69691 -0.43142,-0.99558 -0.26549,-0.26549 -0.59735,-0.39823 -0.96239,-0.39823 -0.39824,0 -0.7301,0.13274 -0.99559,0.39823 z m 10.51998,3.3186 7.50004,-4.34737 -6.57083,-4.57967 -7.99784,4.61286 -6.1726,-4.61286 -7.53323,4.38056 6.60402,5.17702 0,19.97799 6.63721,4.44693 7.50004,-4.34737 -6.57083,-4.57967 -0.0332,-19.84525 -1.02877,0.63053 c 0.0996,0.2323 0.16593,0.49779 0.16593,0.76328 0,0.46461 -0.16593,0.89602 -0.4646,1.26107 -0.29868,0.36505 -0.66372,0.59735 -1.09514,0.69691 l 0,17.88727 5.97349,4.281 -0.66372,0.39823 -6.00668,-4.21462 0,-18.3187 c -0.56416,-0.0332 -0.99558,-0.29867 -1.32744,-0.73009 l -1.26107,0.76328 -6.07304,-4.91153 0.6969,-0.43142 5.50889,4.48011 0.79646,-0.49779 c -0.0996,-0.2323 -0.13274,-0.43142 -0.13274,-0.66372 0,-0.56416 0.19911,-1.02877 0.59735,-1.427 0.36504,-0.39823 0.86283,-0.59735 1.427,-0.59735 0.56416,0 1.06195,0.23231 1.46018,0.66372 l 0.99558,-0.63053 0.46461,0.59735 0.63053,-0.39823 5.97349,4.11506 z m -6.63721,-3.71683 0.0332,0 -0.0332,0 z" />
    </g>
    <g
       id="flowRoot3346"
       style="font-style:normal;font-variant:normal;font-weight:normal;font-stretch:normal;font-size:40.00045395px;line-height:125%;font-family:CiberGotica;-inkscape-font-specification:'CiberGotica, Normal';text-align:start;letter-spacing:0px;word-spacing:0px;writing-mode:lr-tb;text-anchor:start;fill:url(#linearGradient5716);fill-opacity:1;stroke:#000000;stroke-width:0.58854032;stroke-linecap:round;stroke-linejoin:miter;stroke-miterlimit:4.0999999;stroke-dasharray:none;stroke-opacity:1;filter:url(#filter8510)"
       transform="matrix(1.7332426,0,0,1.6656671,-43.493125,-18.810557)">
      <path
         id="path4655"
         style="fill:url(#linearGradient3829);fill-opacity:1"
         d="m 49.144687,71.063786 c 0.156252,0.175783 0.234378,0.371097 0.234378,0.585944 0,0.214846 -0.07813,0.410161 -0.234378,0.566412 -0.175783,0.156252 -0.371098,0.234378 -0.585944,0.234378 -0.156252,0 -0.292972,-0.03906 -0.429693,-0.117189 l 0.03906,-0.01953 -0.156252,-0.07813 c -0.175783,-0.156252 -0.253909,-0.351567 -0.253909,-0.585944 0,-0.214847 0.07813,-0.410161 0.234378,-0.585944 0.156252,-0.156252 0.351567,-0.234378 0.566413,-0.234378 0.214846,0 0.410161,0.07813 0.585944,0.234378 z m 0.371098,1.542986 c 0.253909,-0.273441 0.390629,-0.585944 0.390629,-0.957042 0,-0.371098 -0.13672,-0.703133 -0.390629,-0.957042 -0.253909,-0.25391 -0.585944,-0.39063 -0.957042,-0.39063 -0.371098,0 -0.683602,0.13672 -0.957042,0.39063 -0.25391,0.253909 -0.39063,0.585944 -0.39063,0.957042 0,0.195314 0.03906,0.390629 0.13672,0.566412 l -3.437539,2.011742 -2.851594,-1.953147 -4.921931,2.851595 3.378944,2.26565 8.125093,-4.765679 c 0.253909,0.253909 0.566412,0.371098 0.917979,0.371098 0.371098,0 0.703133,-0.13672 0.957042,-0.390629 z m -8.847757,32.773808 4.921931,-2.85159 -0.03906,-26.172176 10.312617,-5.97663 -0.917979,-0.01953 -14.297037,8.300875 0.01953,26.719052 z m 30.019872,-2.793 -3.378945,1.99221 -2.421902,0 5.800847,-3.35941 0,1.3672 z M 69.35976,88.388201 c 0.175783,0.156252 0.253909,0.351566 0.253909,0.566413 0,0.234377 -0.07813,0.429692 -0.253909,0.585944 -0.156252,0.156251 -0.351566,0.234377 -0.566413,0.234377 -0.214846,0 -0.410161,-0.07813 -0.566412,-0.234377 -0.175784,-0.156252 -0.253909,-0.351567 -0.253909,-0.585944 0,-0.214847 0.07813,-0.410161 0.253909,-0.566413 0.156251,-0.156252 0.351566,-0.234378 0.566412,-0.234378 0.214847,0 0.410161,0.07813 0.566413,0.234378 z m 6.191477,4.824273 -4.160204,-3.418007 -6.171945,3.593791 -1.269546,-0.976574 4.062546,-2.363308 c 0.234378,0.175783 0.488287,0.253909 0.781259,0.253909 0.371098,0 0.683602,-0.13672 0.957042,-0.390629 0.25391,-0.253909 0.39063,-0.585944 0.39063,-0.957042 0,-0.371098 -0.13672,-0.683602 -0.39063,-0.937511 -0.27344,-0.273441 -0.585944,-0.410161 -0.957042,-0.410161 -0.371098,0 -0.703133,0.13672 -0.957042,0.410161 -0.253909,0.253909 -0.390629,0.566413 -0.390629,0.937511 0,0.253909 0.07813,0.507818 0.214846,0.722664 l -9.082134,5.234434 2.167993,1.640644 6.132882,-3.554728 3.808637,3.085973 0,4.570369 -6.718826,3.92582 -4.765679,0.0195 -0.01953,0 -7.148518,-5.214901 0.01953,-24.16043 2.910189,-1.699238 9.433701,7.324302 11.132939,-6.484449 -5.117246,-3.945357 -4.92193,2.851595 4.726616,3.613322 -1.367203,0.781259 -9.375107,-7.30477 -12.34389,7.187581 0,24.707316 -0.01953,0 0.01953,0 0,0.0586 0.03906,-0.0195 7.148519,5.15631 -0.03906,0 4.726616,0 1.894553,-1.0547 -2.578154,0 0.01953,-0.0195 -0.01953,0 -7.773526,-5.37116 c -0.234378,0.17578 -0.488287,0.25391 -0.781259,0.25391 -0.371098,0 -0.683602,-0.13672 -0.937511,-0.39063 -0.253909,-0.25391 -0.390629,-0.56641 -0.390629,-0.937509 0,-0.332035 0.09766,-0.625007 0.312503,-0.878917 0.214847,-0.253909 0.468756,-0.390629 0.800791,-0.449223 l 0,-21.816654 0.449224,-0.234378 0,22.051032 c 0.332035,0.05859 0.585944,0.195314 0.80079,0.449223 0.214846,0.25391 0.312503,0.546882 0.312503,0.878917 0,0.273439 -0.07813,0.527349 -0.214846,0.742199 l 7.734463,5.27349 3.730511,0.0195 -2.421902,1.48439 3.32035,0 12.34389,-7.26571 -0.05859,-6.972736 z m -26.347956,7.285236 c 0.156252,0.15626 0.351567,0.23438 0.566413,0.23438 0.234378,0 0.429692,-0.0781 0.585944,-0.23438 0.156252,-0.15625 0.234378,-0.35156 0.234378,-0.566409 0,-0.234378 -0.07813,-0.429693 -0.234378,-0.585945 -0.156252,-0.156251 -0.351566,-0.234377 -0.585944,-0.234377 -0.214846,0 -0.410161,0.07813 -0.566413,0.234377 -0.156252,0.156252 -0.234377,0.351567 -0.234377,0.585945 0,0.214849 0.07813,0.410159 0.234377,0.566409 z m 6.093819,9.68761 c -0.156251,-0.15625 -0.234377,-0.35156 -0.234377,-0.56641 0,-0.23438 0.07813,-0.42969 0.234377,-0.58594 0.156252,-0.15626 0.351567,-0.23438 0.566413,-0.23438 0.234378,0 0.429692,0.0781 0.585944,0.23438 0.156252,0.15625 0.234378,0.35156 0.234378,0.58594 0,0.21485 -0.07813,0.41016 -0.234378,0.56641 -0.156252,0.15626 -0.351566,0.23438 -0.585944,0.23438 -0.214846,0 -0.410161,-0.0781 -0.566413,-0.23438 z m 1.58205,-1.46486 c -0.273441,-0.29297 -0.605476,-0.44922 -1.015637,-0.44922 -0.371098,0 -0.683601,0.13672 -0.937511,0.39063 -0.27344,0.25391 -0.41016,0.58594 -0.41016,0.95704 0,0.3711 0.13672,0.6836 0.41016,0.93751 0.25391,0.25391 0.566413,0.39063 0.937511,0.39063 0.371098,0 0.703133,-0.13672 0.957042,-0.39063 0.253909,-0.25391 0.39063,-0.56641 0.39063,-0.93751 0,-0.17578 -0.03906,-0.35157 -0.09766,-0.52735 l 2.793001,-1.62111 -0.859385,-0.0195 -2.167993,1.26954 z m -10.839967,-4.9024 -4.921931,2.8516 6.054756,4.27739 -6.992267,4.14067 1.015637,-0.0195 11.269659,-6.62117 -0.156252,-0.15625 -6.269602,-4.47271 z m 13.867345,3.65239 0.03906,-0.0195 -0.01953,0 -0.01953,0.0195 z m -0.898448,-0.0195 0.03906,0 0.01953,0 -0.05859,0 z" />
      <path
         id="path4657"
         style="fill:url(#linearGradient3829);fill-opacity:1"
         d="m 88.813104,100.12662 -0.898448,0.52735 -4.003951,-2.421907 0,-11.464974 0.898447,-0.507819 4.023483,2.402371 -0.01953,11.464979 z m -2.539091,1.48439 -3.203162,-1.914087 c -0.253909,0.253909 -0.546881,0.390627 -0.878916,0.390627 -0.332035,0 -0.605476,-0.117186 -0.839853,-0.351564 -0.234378,-0.234378 -0.351567,-0.507818 -0.351567,-0.839853 0,-0.292972 0.07813,-0.52735 0.253909,-0.742196 0.175784,-0.214846 0.39063,-0.371098 0.66407,-0.429693 l 0,-9.843861 0.39063,-0.214847 0,10.039177 c 0.312503,0.03906 0.566413,0.175783 0.761727,0.390629 0.214846,0.214846 0.312504,0.488287 0.312504,0.800791 0,0.13672 -0.01953,0.292972 -0.07813,0.429692 l 3.359413,2.050805 -0.390629,0.23438 z m 6.992266,-15.48846 -4.414112,-2.695343 -9.394638,5.468812 0,11.875131 4.414113,2.71488 9.394637,-5.449282 0,-11.914198 z M 81.605991,98.310188 c -0.156252,0.156252 -0.234378,0.351567 -0.234378,0.585945 0,0.214846 0.07813,0.410161 0.234378,0.566412 0.175783,0.175784 0.371098,0.253909 0.585944,0.253909 0.214846,0 0.410161,-0.07813 0.585944,-0.253909 0.156252,-0.156251 0.234378,-0.351566 0.234378,-0.566412 0,-0.234378 -0.07813,-0.429693 -0.234378,-0.585945 -0.175783,-0.156251 -0.371098,-0.234377 -0.585944,-0.234377 -0.214846,0 -0.410161,0.07813 -0.585944,0.234377 z" />
      <path
         id="path4659"
         style="fill:url(#linearGradient3829);fill-opacity:1"
         d="m 98.246805,99.169573 c -0.156251,0.156252 -0.234377,0.351567 -0.234377,0.566413 0,0.234378 0.07813,0.429694 0.234377,0.585944 0.156252,0.15625 0.351567,0.23438 0.566413,0.23438 0.234378,0 0.429693,-0.0781 0.585944,-0.23438 0.156252,-0.15625 0.234378,-0.351566 0.234378,-0.585944 0,-0.214846 -0.07813,-0.410161 -0.234378,-0.566413 -0.156251,-0.175783 -0.351566,-0.253909 -0.585944,-0.253909 -0.214846,0 -0.410161,0.07813 -0.566413,0.253909 z m 1.386735,1.445327 c -0.234378,0.21485 -0.507818,0.31251 -0.820322,0.31251 -0.332035,0 -0.605475,-0.11719 -0.859385,-0.35157 -0.234377,-0.21485 -0.351566,-0.50782 -0.351566,-0.839854 0,-0.292972 0.09766,-0.546881 0.292972,-0.761727 0.195315,-0.214847 0.429692,-0.351567 0.703133,-0.410161 l -0.01953,-26.836242 0.39063,-0.214847 0,27.051089 c 0.292972,0.03906 0.546881,0.175783 0.742196,0.390629 0.195315,0.214846 0.292974,0.488287 0.292974,0.781259 0,0.175783 -0.03906,0.351564 -0.117191,0.527354 l 2.617221,1.87502 -0.3711,0.23437 -2.50003,-1.75783 z m 1.77736,-2.402369 0,-28.53548 -4.453172,2.578154 0,28.594075 3.925822,2.63675 4.43365,-2.57816 -3.9063,-2.695339 z" />
      <path
         id="path4661"
         style="fill:url(#linearGradient3829);fill-opacity:1"
         d="m 121.19629,83.388144 c -0.17578,0.175783 -0.41016,0.273441 -0.66407,0.273441 -0.25391,0 -0.48829,-0.09766 -0.66407,-0.273441 -0.19532,-0.175783 -0.29297,-0.410161 -0.29297,-0.66407 0,-0.253909 0.0977,-0.488287 0.29297,-0.66407 0.17578,-0.175783 0.41016,-0.273441 0.66407,-0.273441 0.25391,0 0.48829,0.09766 0.66407,0.273441 0.17578,0.175783 0.27344,0.410161 0.27344,0.66407 0,0.253909 -0.0977,0.488287 -0.27344,0.66407 z m 0.23438,14.980639 -0.39063,0.234378 0,-14.824387 c -0.17579,0.07813 -0.33204,0.117188 -0.50782,0.117188 -0.33204,0 -0.60548,-0.117188 -0.83985,-0.351566 l -1.17189,0.66407 -0.25391,-0.371098 1.17189,-0.66407 c -0.0586,-0.13672 -0.0781,-0.292972 -0.0781,-0.449224 0,-0.03906 0,-0.09766 0.0195,-0.175783 l -8.78916,-9.921988 0.41016,-0.214846 8.51572,9.726673 c 0.21485,-0.390629 0.56641,-0.585944 1.01564,-0.585944 0.33203,0 0.60547,0.117189 0.82032,0.351566 0.23438,0.214846 0.35157,0.488287 0.35157,0.820322 0,0.273441 -0.0977,0.507818 -0.27344,0.722665 l 0,14.922044 z m -3.98442,2.324247 -3.78911,-2.636751 0,-11.035281 4.84381,-2.793001 0,15.859553 -1.0547,0.60548 z m 5.42975,-19.121313 -9.84387,-11.15247 -4.37505,2.539091 9.60949,10.87903 -8.98448,5.234434 0.0195,11.582168 4.19927,2.83206 9.37511,-5.429751 0,-16.484562 z" />
      <path
         id="path4663"
         style="fill:url(#linearGradient3831);fill-opacity:1"
         d="m 100.23902,125.41987 c -0.15625,0.15625 -0.23438,0.35156 -0.23438,0.58594 0,0.21485 0.0781,0.41016 0.23438,0.56642 0.17578,0.15625 0.3711,0.23437 0.58594,0.23437 0.21485,0 0.41016,-0.0781 0.56642,-0.23437 0.15625,-0.15626 0.23437,-0.35157 0.23437,-0.56642 0,-0.23438 -0.0781,-0.42969 -0.23437,-0.58594 -0.15626,-0.15625 -0.35157,-0.23438 -0.56642,-0.23438 -0.21484,0 -0.41016,0.0781 -0.58594,0.23438 z m 22.16822,27.09015 c -0.15625,-0.17578 -0.23438,-0.3711 -0.23438,-0.58594 0,-0.21485 0.0781,-0.41017 0.23438,-0.56642 0.15625,-0.15625 0.35157,-0.23438 0.56641,-0.23438 0.21485,0 0.41016,0.0781 0.58595,0.23438 0.15625,0.15625 0.23437,0.35157 0.23437,0.56642 0,0.21484 -0.0781,0.41016 -0.23437,0.58594 -0.17579,0.15625 -0.3711,0.23438 -0.58595,0.23438 -0.21484,0 -0.41016,-0.0781 -0.56641,-0.23438 z m -21.54321,2.87113 -0.44923,0.2539 0,-28.35969 c -0.3125,-0.0977 -0.54688,-0.29297 -0.722663,-0.56641 l -1.406266,0.82032 0,-0.54688 1.210951,-0.72267 c -0.01953,-0.0977 -0.01953,-0.17578 -0.01953,-0.25391 0,-0.42969 0.175783,-0.78126 0.507818,-1.0547 l -4.179735,-2.91019 0.429693,-0.27344 4.160203,2.96879 c 0.15625,-0.0586 0.29297,-0.0781 0.42969,-0.0781 0.3711,0 0.6836,0.13672 0.93751,0.39063 0.25391,0.25391 0.39063,0.58594 0.39063,0.95704 0,0.35157 -0.11719,0.66407 -0.3711,0.91798 -0.2539,0.25391 -0.54688,0.39063 -0.91797,0.41016 l 0,28.0472 z m -8.750104,-24.31669 c -0.156252,-0.17578 -0.234378,-0.37109 -0.234378,-0.58594 0,-0.21485 0.07813,-0.41016 0.234378,-0.56641 0.156252,-0.15626 0.351567,-0.23438 0.566413,-0.23438 0.214846,0 0.410161,0.0781 0.566412,0.23438 0.175784,0.15625 0.25391,0.35156 0.25391,0.56641 0,0.21485 -0.07813,0.41016 -0.25391,0.58594 -0.156251,0.15626 -0.351566,0.23438 -0.566412,0.23438 -0.214846,0 -0.410161,-0.0781 -0.566413,-0.23438 z m 29.922214,19.9221 c -0.25391,0.25391 -0.39063,0.56642 -0.39063,0.93752 0,0.13672 0.0195,0.29297 0.0781,0.44922 l -4.23833,2.18752 -3.39848,0.0586 9.70714,-5.33209 0,-18.39865 -0.0195,0 -14.04313,-10.52746 -6.54304,3.7891 -5.605532,-3.7891 -12.656394,7.44149 3.750043,2.63675 4.843805,-2.83207 -3.300819,-2.34377 2.988315,-1.71877 5.097715,3.418 -4.550833,2.73441 c -0.253909,-0.3711 -0.625007,-0.54688 -1.074231,-0.54688 -0.371098,0 -0.683602,0.13672 -0.937511,0.39063 -0.253909,0.25391 -0.390629,0.56641 -0.390629,0.93751 0,0.3711 0.13672,0.70313 0.390629,0.95704 0.253909,0.25391 0.566413,0.39063 0.937511,0.39063 0.371098,0 0.683601,-0.13672 0.957042,-0.39063 0.253909,-0.25391 0.390629,-0.58594 0.390629,-0.95704 0,-0.11719 -0.01953,-0.25391 -0.07813,-0.39063 l 4.355519,-2.53909 0,29.90268 4.882867,-2.85159 0,-29.90269 2.05081,-1.19142 13.67203,10.2345 0,17.61738 -5.80085,3.2227 -4.02349,0 -4.88286,2.85159 9.0626,0 8.71104,-4.62896 c 0.25391,0.31251 0.58594,0.46876 0.9961,0.46876 0.3711,0 0.70313,-0.13672 0.95704,-0.39063 0.25391,-0.25391 0.39063,-0.58595 0.39063,-0.95704 0,-0.3711 -0.13672,-0.68361 -0.39063,-0.93752 -0.25391,-0.2539 -0.58594,-0.39062 -0.95704,-0.39062 -0.3711,0 -0.6836,0.13672 -0.93751,0.39062 z m -10.33215,-0.0586 c 0.15625,0.15625 0.23438,0.35157 0.23438,0.56641 0,0.21485 -0.0781,0.41016 -0.23438,0.56642 -0.15625,0.17578 -0.35156,0.2539 -0.58594,0.2539 -0.21485,0 -0.41016,-0.0781 -0.56641,-0.2539 -0.15626,-0.15626 -0.23438,-0.35157 -0.23438,-0.56642 0,-0.21484 0.0781,-0.41016 0.23438,-0.56641 0.15625,-0.15625 0.35156,-0.23438 0.56641,-0.23438 0.23438,0 0.42969,0.0781 0.58594,0.23438 z m -19.863505,-17.26582 0,29.53158 18.398645,-10.68371 c 0.25391,0.21485 0.54688,0.33203 0.87892,0.33203 0.3711,0 0.70313,-0.13672 0.95704,-0.39062 0.25391,-0.25391 0.39063,-0.58595 0.39063,-0.95705 0,-0.3711 -0.13672,-0.6836 -0.39063,-0.93751 -0.25391,-0.25391 -0.58594,-0.39063 -0.95704,-0.39063 -0.3711,0 -0.6836,0.13672 -0.93751,0.39063 -0.25391,0.25391 -0.39063,0.56641 -0.39063,0.93751 0,0.21485 0.0586,0.41016 0.15625,0.60548 l -13.222807,7.6954 0,-29.19955 -4.882868,3.06644 z" />
      <path
         id="path4665"
         style="fill:url(#linearGradient3831);fill-opacity:1"
         d="m 139.65353,140.59582 c -0.17578,0.17578 -0.41016,0.27344 -0.66407,0.27344 -0.27344,0 -0.50782,-0.0977 -0.6836,-0.27344 -0.17579,-0.19531 -0.27344,-0.42969 -0.27344,-0.6836 0,-0.25391 0.0976,-0.48829 0.27344,-0.6836 0.17578,-0.17578 0.41016,-0.27344 0.6836,-0.27344 0.25391,0 0.48829,0.0977 0.66407,0.27344 0.19531,0.19531 0.29297,0.42969 0.29297,0.6836 0,0.25391 -0.0977,0.48829 -0.29297,0.6836 z m -0.83985,8.73057 0,-8.20322 c -0.33204,-0.0586 -0.58595,-0.19531 -0.80079,-0.44922 l -1.0547,0.625 0,-0.46875 0.85938,-0.52735 c -0.0391,-0.13672 -0.0586,-0.27344 -0.0586,-0.39063 0,-0.33203 0.11719,-0.62501 0.35156,-0.87892 0.25391,-0.23437 0.54688,-0.35156 0.87892,-0.35156 0.35157,0 0.64454,0.13672 0.89845,0.41016 l 0.17578,-0.0977 0,-1.01564 -4.23833,-2.94925 0.42969,-0.23438 4.2188,2.94926 0,1.52345 -0.35157,0.19532 c 0.0586,0.15625 0.0781,0.3125 0.0781,0.44922 0,0.29297 -0.0977,0.56641 -0.27344,0.78126 -0.19531,0.21485 -0.42969,0.3711 -0.72266,0.42969 l 0,7.96884 3.90629,2.73441 -0.3711,0.23438 -3.92582,-2.73441 z m -1.83596,0.48829 -1.44533,0.83985 -3.4766,-2.40237 0,-4.10161 4.92193,-2.83206 0,8.49619 z m 4.41411,-2.03128 0,-11.60169 -3.8477,-2.61722 -0.0195,0 -9.0626,5.2735 0,0.46875 5.03912,-2.91018 3.4766,2.38283 0,2.03128 -9.35558,5.41022 0,4.64849 0.0391,-0.0195 3.8477,2.63675 5.46881,-3.1641 0,0.0195 4.27739,3.14456 4.39458,-2.55862 -4.25786,-3.14457 z" />
      <path
         id="path4667"
         style="fill:url(#linearGradient3831);fill-opacity:1"
         d="m 161.35299,149.56077 c 0.15625,-0.15625 0.23438,-0.35157 0.23438,-0.58595 0,-0.21484 -0.0781,-0.41016 -0.23438,-0.56641 -0.15625,-0.17578 -0.35156,-0.25391 -0.58594,-0.25391 -0.21485,0 -0.41016,0.0781 -0.58595,0.25391 -0.15625,0.15625 -0.23437,0.35157 -0.23437,0.56641 0,0.23438 0.0781,0.4297 0.23437,0.58595 0.17579,0.17578 0.3711,0.25391 0.58595,0.25391 0.23438,0 0.42969,-0.0781 0.58594,-0.25391 z m -3.04691,-10.93763 0,11.5431 -0.87891,0.50782 -3.80864,-2.61722 0,-11.172 1.17189,-0.6836 3.51566,2.4219 z m 9.08214,-4.70708 0,-0.56641 -4.64849,2.67581 -3.86723,-2.67581 -9.74621,5.60553 0,11.69935 4.19927,2.85159 4.98052,-2.85159 0,-0.46876 1.32814,-0.80079 c -0.0391,-0.13672 -0.0586,-0.27344 -0.0586,-0.41016 0,-0.33203 0.11719,-0.625 0.3711,-0.85938 l 0,-10.01965 -3.86723,-2.69534 0.44922,-0.23438 3.82817,2.71488 0,9.98058 c 0.13672,-0.0586 0.27344,-0.0781 0.41016,-0.0781 0.33203,0 0.60547,0.11719 0.83985,0.35157 0.25391,0.23438 0.3711,0.50782 0.3711,0.83985 0,0.11719 -0.0195,0.23438 -0.0781,0.3711 l 4.12114,8.47666 -0.35156,0.17578 -4.04302,-8.18368 c -0.23437,0.25391 -0.52735,0.37109 -0.85938,0.37109 -0.3711,0 -0.66407,-0.13672 -0.89845,-0.42969 l -1.56252,0.89845 4.35552,9.08213 -5.03912,2.92972 -4.00395,-5.07818 -4.49224,2.59769 4.31646,5.39068 0.0391,0.0586 13.82828,-8.04697 -4.5313,-9.49229 0,-11.5431 4.60943,-2.63675 z" />
      <path
         id="path4669"
         style="fill:url(#linearGradient3831);fill-opacity:1"
         d="m 180.02507,149.56077 c 0.15626,-0.15625 0.23438,-0.35157 0.23438,-0.58595 0,-0.21484 -0.0781,-0.41016 -0.23438,-0.56641 -0.15625,-0.17578 -0.35156,-0.25391 -0.58594,-0.25391 -0.21485,0 -0.41016,0.0781 -0.58594,0.25391 -0.15626,0.15625 -0.23438,0.35157 -0.23438,0.56641 0,0.23438 0.0781,0.4297 0.23438,0.58595 0.17578,0.17578 0.37109,0.25391 0.58594,0.25391 0.23438,0 0.42969,-0.0781 0.58594,-0.25391 z m -3.04691,-10.93763 0,11.5431 -0.87891,0.50782 -3.80864,-2.61722 0,-11.172 1.17189,-0.6836 3.51566,2.4219 z m 9.08214,-4.70708 0,-0.56641 -4.64849,2.67581 -3.86723,-2.67581 -9.74621,5.60553 0,11.69935 4.19927,2.85159 4.98052,-2.85159 0,-0.46876 1.32814,-0.80079 c -0.0391,-0.13672 -0.0586,-0.27344 -0.0586,-0.41016 0,-0.33203 0.11719,-0.625 0.3711,-0.85938 l 0,-10.01965 -3.86723,-2.69534 0.44922,-0.23438 3.82817,2.71488 0,9.98058 c 0.13672,-0.0586 0.27344,-0.0781 0.41016,-0.0781 0.33203,0 0.60548,0.11719 0.83985,0.35157 0.25391,0.23438 0.3711,0.50782 0.3711,0.83985 0,0.11719 -0.0195,0.23438 -0.0781,0.3711 l 4.12114,8.47666 -0.35157,0.17578 -4.04302,-8.18368 c -0.23437,0.25391 -0.52735,0.37109 -0.85938,0.37109 -0.3711,0 -0.66407,-0.13672 -0.89845,-0.42969 l -1.56252,0.89845 4.35552,9.08213 -5.03912,2.92972 -4.00395,-5.07818 -4.49224,2.59769 4.31646,5.39068 0.0391,0.0586 13.82828,-8.04697 -4.5313,-9.49229 0,-11.5431 4.60943,-2.63675 z" />
      <path
         id="path4671"
         style="fill:url(#linearGradient3831);fill-opacity:1"
         d="m 189.06815,145.88885 c -0.17579,0.19532 -0.41016,0.29297 -0.68361,0.29297 -0.2539,0 -0.48828,-0.0976 -0.66407,-0.29297 -0.19531,-0.17578 -0.29297,-0.41016 -0.29297,-0.66407 0,-0.27344 0.0977,-0.50782 0.29297,-0.6836 0.17579,-0.17578 0.41017,-0.27344 0.66407,-0.27344 0.27345,0 0.50782,0.0977 0.68361,0.27344 0.17578,0.17578 0.27344,0.41016 0.27344,0.6836 0,0.25391 -0.0977,0.48829 -0.27344,0.66407 z m 2.53909,6.67976 -4.00395,-2.81253 0,-3.65238 c -0.25391,-0.25391 -0.39063,-0.54688 -0.39063,-0.87892 0,-0.33203 0.11719,-0.62501 0.35156,-0.83985 0.21485,-0.23438 0.48829,-0.35157 0.82032,-0.35157 0.13673,0 0.29298,0.0195 0.4297,0.0781 l 0,-5.76179 0.41016,-0.21484 0,6.23054 c 0,0.0195 0.0195,0.0391 0.0586,0.0781 l 1.64065,-0.95704 0,0.48829 -1.4258,0.82032 c 0.0586,0.13672 0.0781,0.29297 0.0781,0.42969 0,0.33204 -0.11718,0.60548 -0.35156,0.83985 -0.21485,0.21485 -0.50782,0.33204 -0.83986,0.33204 -0.11718,0 -0.23437,-0.0195 -0.37109,-0.0586 l 0,3.14457 3.96489,2.8516 -0.3711,0.23437 z m -0.6836,-15.41033 1.32814,-0.78126 3.55472,4.25786 -4.88286,2.8516 0,-6.3282 z m 0,10.93763 0,-4.12114 9.58995,-5.50788 -4.10161,-4.98052 -9.92199,5.76178 0,11.42591 4.14067,2.81253 9.62902,-5.50787 0,-0.56641 -5.586,3.28128 -3.75004,-2.59768 z" />
      <path
         id="path4673"
         style="fill:url(#linearGradient3831);fill-opacity:1"
         d="m 208.5801,136.78718 c -0.15626,0.17579 -0.23438,0.3711 -0.23438,0.58595 0,0.21485 0.0781,0.41016 0.23438,0.58594 0.15625,0.15625 0.35156,0.23438 0.58594,0.23438 0.21485,0 0.41016,-0.0781 0.56641,-0.23438 0.17579,-0.17578 0.25391,-0.37109 0.25391,-0.58594 0,-0.21485 -0.0781,-0.41016 -0.25391,-0.58595 -0.15625,-0.15625 -0.35156,-0.23437 -0.56641,-0.23437 -0.23438,0 -0.42969,0.0781 -0.58594,0.23437 z m 6.19147,1.95315 4.41411,-2.55862 -3.86723,-2.69534 -4.70708,2.71487 -3.63286,-2.71487 -4.43364,2.57815 3.88676,3.04691 0,11.75795 3.9063,2.61721 4.41411,-2.55862 -3.86723,-2.69534 -0.0195,-11.67982 -0.60548,0.3711 c 0.0586,0.13672 0.0977,0.29297 0.0977,0.44922 0,0.27344 -0.0977,0.52735 -0.27344,0.74219 -0.17578,0.21485 -0.39063,0.35157 -0.64454,0.41017 l 0,10.52746 3.51566,2.51956 -0.39062,0.23438 -3.5352,-2.4805 0,-10.78137 c -0.33204,-0.0195 -0.58594,-0.17579 -0.78126,-0.4297 l -0.7422,0.44923 -3.57425,-2.89066 0.41016,-0.25391 3.24222,2.63675 0.46876,-0.29297 c -0.0586,-0.13672 -0.0781,-0.25391 -0.0781,-0.39063 0,-0.33204 0.11719,-0.60548 0.35157,-0.83985 0.21484,-0.23438 0.50781,-0.35157 0.83985,-0.35157 0.33203,0 0.62501,0.13672 0.85938,0.39063 l 0.58595,-0.3711 0.27344,0.35157 0.3711,-0.23438 3.51566,2.4219 z m -3.90629,-2.18752 0.0195,0 -0.0195,0 z" />
    </g>
  </g>
</svg>
